<svg width="1200" height="300" viewBox="0 0 1200 300" xmlns="http://www.w3.org/2000/svg">
  <defs>
    <pattern id="dotgrid" width="26" height="26" patternUnits="userSpaceOnUse">
      <circle cx="2" cy="2" r="1.1" fill="#F5A623" opacity="0.16"/>
    </pattern>
  </defs>

  <rect width="1200" height="300" fill="#0B0E14"/>
  <rect width="1200" height="300" fill="url(#dotgrid)"/>

  <rect x="0" y="0" width="1200" height="3" fill="#F5A623"/>
  <rect x="0" y="297" width="1200" height="3" fill="#141924"/>

  <text x="60" y="54" font-family="ui-monospace, 'Cascadia Code', 'Fira Code', Consolas, monospace" font-size="15" fill="#4FD1C5">~/shivam-machhi</text>

  <g transform="translate(998,36)">
    <rect x="0" y="0" width="142" height="30" rx="15" fill="#141924" stroke="#2A3040"/>
    <circle cx="20" cy="15" r="4" fill="#F5A623"/>
    <text x="34" y="20" font-family="ui-monospace, 'Cascadia Code', 'Fira Code', Consolas, monospace" font-size="12" fill="#F2EFEA" letter-spacing="1">BUILDING</text>
  </g>

  <text x="60" y="152" font-family="ui-monospace, 'Cascadia Code', 'Fira Code', Consolas, monospace" font-size="52" font-weight="700" fill="#F2EFEA" letter-spacing="1">SHIVAM MACHHI</text>

  <text x="60" y="190" font-family="ui-monospace, 'Cascadia Code', 'Fira Code', Consolas, monospace" font-size="18" fill="#F5A623">full-stack developer · ai/ml systems · pattern detection at scale</text>

  <text x="60" y="248" font-family="ui-monospace, 'Cascadia Code', 'Fira Code', Consolas, monospace" font-size="14" fill="#8B8F98">DEPSTAR, CHARUSAT — B.Tech Computer Science Engineering</text>

  <g transform="translate(910,222)">
    <text x="0" y="-14" font-family="ui-monospace, 'Cascadia Code', 'Fira Code', Consolas, monospace" font-size="10" fill="#4FD1C5" letter-spacing="1">MATCH FOUND</text>
    <circle cx="0" cy="0" r="3" fill="#2A3040"/>
    <circle cx="20" cy="0" r="3" fill="#2A3040"/>
    <circle cx="40" cy="0" r="3" fill="#2A3040"/>
    <circle cx="60" cy="0" r="3.5" fill="#4FD1C5"/>
    <circle cx="80" cy="0" r="3" fill="#2A3040"/>
    <circle cx="100" cy="0" r="3" fill="#2A3040"/>
    <circle cx="120" cy="0" r="3" fill="#2A3040"/>
  </g>
</svg>
